<svg id="Capa_1" enable-background="new 0 0 512 512" height="512" viewBox="0 0 512 512" width="512" xmlns="http://www.w3.org/2000/svg"><g><g fill="#ffbecb"><path d="m466 450h-420v-66.829c0-33.002 26.754-59.756 59.756-59.756h300.488c33.002 0 59.756 26.754 59.756 59.756z"/><path d="m406.244 323.415h-300.488v-66.293c0-33.002 26.754-59.756 59.756-59.756h180.976c33.002 0 59.756 26.754 59.756 59.756z"/><path d="m346.488 109.732v87.634h-180.976v-87.634c0-16.501 13.377-29.878 29.878-29.878h121.22c16.501 0 29.878 13.377 29.878 29.878z"/></g><path d="m464.438 369.538c-15.921.598-16.441 10.218-33.369 10.218-17.466 0-17.466-10.244-34.94-10.244-17.457 0-17.457 10.244-34.923 10.244s-17.466-10.244-34.932-10.244-17.466 10.244-34.932 10.244-17.466-10.244-34.923-10.244c-17.466 0-17.466 10.244-34.923 10.244-17.466 0-17.466-10.244-34.932-10.244s-17.466 10.244-34.932 10.244c-17.457 0-17.457-10.244-34.923-10.244s-17.466 10.244-34.932 10.244c-17.218 0-17.457-9.962-34.215-10.235 6.18-26.421 29.887-46.106 58.194-46.106h300.488c28.316 0 52.022 19.694 58.194 46.123z" fill="#ff5c7d"/><path d="m404.682 243.498v.009c-13.479.683-14 10.201-28.495 10.201-15.024 0-15.024-10.244-30.049-10.244-15.024 0-15.024 10.244-30.049 10.244-15.024 0-15.024-10.244-30.049-10.244-15.024 0-15.024 10.244-30.049 10.244-15.024 0-15.024-10.244-30.049-10.244-15.024 0-15.024 10.244-30.049 10.244-15.016 0-15.016-10.244-30.04-10.244s-15.024 10.244-30.049 10.244c-14.487 0-15.007-9.518-28.487-10.201v-.009c6.163-26.438 29.878-46.132 58.194-46.132h180.976c28.317 0 52.031 19.694 58.195 46.132z" fill="#ff5c7d"/><path d="m346.488 109.732v24.56c-.068.077-.145.145-.213.213-14.171.47-14.529 10.227-29.383 10.227-15.229 0-15.229-10.244-30.45-10.244s-15.221 10.244-30.45 10.244c-15.221 0-15.221-10.244-30.441-10.244-15.221 0-15.221 10.244-30.45 10.244-14.854 0-15.212-9.757-29.374-10.227h-.213v-24.773c0-16.501 13.377-29.878 29.878-29.878h121.218c16.501 0 29.878 13.377 29.878 29.878z" fill="#ff5c7d"/><path d="m10 450c0 23.196 24 42 72 42h348c48 0 72-18.804 72-42z" fill="#c0e7f8"/><g><path d="m509.07 442.93c-1.86-1.86-4.44-2.93-7.07-2.93h-26v-56.829c0-35.068-26.014-64.162-59.756-69.028v-57.021c0-35.068-26.015-64.162-59.756-69.028v-78.362c0-19.176-13.607-35.23-31.671-39.025.768-3.505 1.183-7.093 1.183-10.707 0-27.57-22.43-50-50-50-6.898 0-13.709 1.45-19.999 4.192-6.287-2.74-13.1-4.192-20.001-4.192-27.57 0-50 22.43-50 50 0 3.614.415 7.202 1.183 10.707-18.064 3.795-31.671 19.848-31.671 39.025v78.362c-33.742 4.866-59.756 33.96-59.756 69.028v57.021c-33.741 4.866-59.756 33.96-59.756 69.028v56.829h-26c-2.63 0-5.21 1.069-7.07 2.93-1.86 1.86-2.93 4.44-2.93 7.07-.02 7.569 2.03 15 5.91 21.47 2.91 4.86 6.83 9.271 11.67 13.09 4.76 3.76 10.41 6.97 16.81 9.54 13.03 5.24 29.05 7.891 47.61 7.9h129.53c5.51 0 10-4.49 10-10s-4.49-10-10-10h-129.75c-20.38 0-37.57-3.82-48.43-10.75-4.56-2.9-8.02-6.271-10.26-10.03-.24-.4-.47-.81-.68-1.22h467.18c-.21.41-.44.819-.68 1.22-3.46 5.82-9.95 10.771-18.77 14.33-10.45 4.22-24.3 6.45-40.04 6.45h-128.57c-5.51 0-10 4.479-10 10 0 5.51 4.49 10 10 10h128.47c24.83-.03 44.79-4.69 59.35-13.851 7.24-4.59 12.87-10.189 16.74-16.68 3.88-6.47 5.92-13.9 5.91-21.47 0-2.629-1.07-5.209-2.93-7.069zm-393.314-185.666c4.194 2.844 9.947 6.443 20.049 6.443 10.597 0 16.412-3.965 20.658-6.859 3.305-2.253 4.963-3.384 9.391-3.384s6.086 1.131 9.391 3.385c4.245 2.895 10.058 6.858 20.65 6.858 10.597 0 16.412-3.965 20.658-6.859 3.305-2.253 4.963-3.384 9.391-3.384s6.086 1.131 9.391 3.384c4.246 2.895 10.061 6.859 20.658 6.859s16.412-3.965 20.658-6.859c3.305-2.253 4.963-3.384 9.391-3.384s6.086 1.131 9.391 3.384c4.246 2.895 10.061 6.859 20.658 6.859s16.412-3.965 20.658-6.859c3.305-2.253 4.963-3.384 9.391-3.384s6.086 1.131 9.391 3.384c4.246 2.895 10.061 6.859 20.658 6.859 10.107 0 15.862-3.6 20.058-6.444v56.152h-280.491zm59.756-108.547c4.177 2.756 9.897 6.014 19.588 6.014 10.667 0 16.53-3.945 20.812-6.825 3.382-2.276 5.08-3.418 9.638-3.418s6.256 1.143 9.638 3.418c4.28 2.88 10.142 6.825 20.804 6.825 10.667 0 16.53-3.945 20.812-6.825 3.382-2.276 5.08-3.418 9.638-3.418s6.256 1.142 9.638 3.418c4.282 2.88 10.146 6.825 20.812 6.825 9.697 0 15.419-3.262 19.596-6.019v38.654h-160.976zm130.488-88.717c0 3.368-.575 6.7-1.67 9.854h-19.315c.649-3.233.985-6.534.985-9.854 0-10.961-3.645-21.46-10.042-29.999.014 0 .028-.001.042-.001 16.542 0 30 13.458 30 30zm-58.33 9.854c-1.095-3.153-1.67-6.486-1.67-9.854 0-8.591 3.728-16.713 9.999-22.348 6.274 5.638 10.001 13.759 10.001 22.348 0 3.368-.575 6.7-1.67 9.854zm-11.67-39.854c.014 0 .027.001.041.001-6.396 8.538-10.041 19.037-10.041 29.999 0 3.32.336 6.621.986 9.854h-19.316c-1.095-3.153-1.67-6.486-1.67-9.854 0-16.542 13.458-30 30-30zm-40.61 59.854h121.22c10.961 0 19.878 8.917 19.878 19.878v16.387c-4.328 1.416-7.436 3.499-9.958 5.196-3.382 2.275-5.08 3.417-9.638 3.417-4.565 0-6.264-1.143-9.648-3.42-4.28-2.88-10.142-6.823-20.802-6.823s-16.522 3.944-20.802 6.823c-3.384 2.277-5.083 3.42-9.647 3.42-4.559 0-6.256-1.143-9.638-3.418-4.28-2.88-10.142-6.825-20.804-6.825-10.66 0-16.522 3.944-20.802 6.823-3.384 2.277-5.083 3.42-9.647 3.42-4.558 0-6.255-1.143-9.638-3.418-2.522-1.697-5.624-3.781-9.95-5.197v-16.385c-.002-10.961 8.915-19.878 19.876-19.878zm-29.878 117.512h180.976c20.117 0 37.471 12.008 45.305 29.226-2.483 1.199-4.482 2.559-6.201 3.729-3.309 2.254-4.969 3.386-9.405 3.386-4.428 0-6.086-1.131-9.391-3.384-4.246-2.895-10.061-6.859-20.658-6.859s-16.412 3.965-20.658 6.859c-3.305 2.253-4.963 3.384-9.391 3.384s-6.086-1.131-9.391-3.384c-4.246-2.895-10.061-6.859-20.658-6.859s-16.411 3.965-20.657 6.859c-3.305 2.253-4.963 3.384-9.391 3.384s-6.086-1.131-9.391-3.384c-4.246-2.895-10.061-6.859-20.658-6.859s-16.412 3.965-20.658 6.859c-3.305 2.253-4.963 3.384-9.391 3.384-4.422 0-6.079-1.13-9.381-3.382-4.246-2.896-10.061-6.861-20.659-6.861-10.597 0-16.412 3.965-20.658 6.859-3.305 2.253-4.963 3.384-9.391 3.384-4.43 0-6.089-1.131-9.395-3.384-1.719-1.172-3.719-2.532-6.203-3.731 7.834-17.218 25.188-29.226 45.305-29.226zm-59.756 126.049h300.488c19.89 0 37.082 11.735 45.04 28.641-3.107 1.202-5.591 2.652-7.808 3.952-3.849 2.257-6.391 3.748-12.408 3.748-6.016 0-8.559-1.491-12.407-3.747-4.937-2.895-11.08-6.497-22.534-6.497-11.444 0-17.583 3.602-22.517 6.496-3.847 2.257-6.389 3.748-12.406 3.748s-8.559-1.491-12.407-3.748c-4.935-2.895-11.076-6.496-22.525-6.496s-17.59 3.602-22.525 6.496c-3.848 2.257-6.39 3.748-12.407 3.748s-8.559-1.491-12.406-3.748c-4.933-2.895-11.072-6.496-22.517-6.496-11.451 0-17.592 3.603-22.526 6.498-3.846 2.256-6.386 3.746-12.397 3.746-6.017 0-8.559-1.491-12.407-3.748-4.935-2.895-11.076-6.496-22.525-6.496s-17.59 3.602-22.525 6.496c-3.848 2.257-6.39 3.748-12.407 3.748-6.011 0-8.551-1.49-12.397-3.746-4.935-2.896-11.076-6.498-22.526-6.498-11.449 0-17.59 3.602-22.525 6.496-3.848 2.257-6.39 3.748-12.407 3.748-6.012 0-8.554-1.49-12.4-3.746-2.396-1.405-5.085-2.982-8.535-4.23 8.015-16.759 25.134-28.365 44.916-28.365zm-49.756 106.585s.024-57.965.043-58.531c1.038.516 2.067 1.119 3.216 1.792 4.934 2.894 11.074 6.494 22.518 6.494 11.449 0 17.59-3.602 22.525-6.496 3.848-2.257 6.39-3.748 12.407-3.748s8.559 1.491 12.406 3.748c4.933 2.895 11.073 6.496 22.517 6.496 11.449 0 17.59-3.602 22.525-6.496 3.848-2.257 6.39-3.748 12.407-3.748s8.559 1.491 12.407 3.748c4.935 2.895 11.076 6.496 22.525 6.496 11.444 0 17.584-3.602 22.517-6.496 3.847-2.257 6.389-3.748 12.406-3.748 6.011 0 8.551 1.49 12.396 3.746 4.935 2.896 11.076 6.498 22.526 6.498 11.449 0 17.59-3.602 22.525-6.496 3.848-2.257 6.39-3.748 12.407-3.748s8.559 1.491 12.407 3.748c4.935 2.895 11.076 6.496 22.525 6.496 11.451 0 17.592-3.603 22.526-6.498 3.846-2.256 6.386-3.746 12.396-3.746 6.023 0 8.566 1.491 12.417 3.749 4.935 2.894 11.076 6.495 22.523 6.495 11.45 0 17.591-3.602 22.526-6.496.841-.493 1.647-.945 2.406-1.355.011.422 0 58.095 0 58.095h-399.999z"/><circle cx="256.53" cy="492" r="10"/></g></g></svg>