<svg id="Capa_1" enable-background="new 0 0 512 512" height="512" viewBox="0 0 512 512" width="512" xmlns="http://www.w3.org/2000/svg"><g><path d="m98.406 46.023c22.803 0 43.588 8.635 59.268 22.81 22.069-35.322 61.293-58.825 106.013-58.825 41.319 0 77.946 20.064 100.686 50.975 14.069-9.447 31-14.961 49.22-14.961 48.825 0 88.406 39.579 88.406 88.403 0 47.211-37.011 85.776-83.602 88.272l-20 279.292h-275.186l-20-279.292c-1.591.085-3.192.131-4.805.131-48.825.001-88.406-39.578-88.406-88.402s39.581-88.403 88.406-88.403z" fill="#fff"/><g><circle cx="409.014" cy="353.785" r="10"/><path d="m504.26 96.114c-4.96-11.721-12.05-22.242-21.09-31.281-9.03-9.029-19.561-16.126-31.28-21.081-12.13-5.135-25.01-7.738-38.3-7.738h-.021c-8.3 0-16.56 1.041-24.55 3.093-7.739 1.992-15.229 4.935-22.27 8.749-25.699-30.409-63.27-47.856-103.06-47.856-10.87 0-21.67 1.291-32.13 3.853-10.16 2.483-20.04 6.166-29.359 10.951-9.15 4.695-17.79 10.45-25.66 17.116-7.82 6.627-14.9 14.154-21.021 22.352-8.149-5.816-17.09-10.33-26.59-13.423-9.83-3.214-20.09-4.835-30.5-4.835h-.02c-13.29 0-26.17 2.603-38.301 7.738-11.72 4.955-22.25 12.052-31.279 21.081-9.04 9.039-16.141 19.559-21.09 31.281-5.13 12.131-7.739 25.024-7.739 38.317 0 25.505 9.729 49.698 27.37 68.097 8.59 8.958 18.63 16.126 29.85 21.301 11.561 5.335 23.9 8.328 36.68 8.909l19.341 269.964c.18 2.543 1.3 4.885 3.159 6.616 1.851 1.732 4.271 2.683 6.811 2.683h275.189c2.54 0 4.96-.951 6.811-2.683 1.859-1.732 2.979-4.074 3.16-6.616l7.399-103.281c.19-2.673-.67-5.245-2.42-7.267s-4.18-3.243-6.84-3.434c-.24-.02-.49-.03-.729-.03-5.211 0-9.58 4.084-9.961 9.289v.01l-3.794 52.994h-59.762l2.313-33.114c.386-5.515-3.769-10.298-9.278-10.684-5.507-.391-10.288 3.772-10.673 9.287l-2.411 34.511h-103.228l-2.411-34.511c-.385-5.514-5.157-9.676-10.673-9.287-5.51.386-9.664 5.169-9.278 10.684l2.313 33.114h-58.938c-.14 0-.277.015-.416.021l-15.724-219.52c10.093-1.785 20.378-5.263 29.773-10.134 4.904-2.543 6.821-8.583 4.281-13.492-2.54-4.907-8.571-6.827-13.479-4.285-10.12 5.247-21.416 8.487-31.832 9.139-1.442.067-2.847.107-4.193.107-20.94 0-40.63-8.158-55.45-22.962-14.8-14.826-22.96-34.506-22.96-55.426 0-20.931 8.16-40.62 22.96-55.434 14.82-14.804 34.51-22.962 55.45-22.962 16.795 0 33.003 5.37 46.414 15.231-3.602 6.506-6.39 12.566-8.424 18.342-1.835 5.214.899 10.931 6.108 12.768 1.099.388 2.221.572 3.323.572 4.123 0 7.983-2.572 9.432-6.686 2.355-6.691 11.68-23.217 11.863-23.629 21.331-32.977 57.282-52.613 96.562-52.613 36.549 0 70.003 16.763 91.957 46.019.094.143 12.744 19.904 16.154 29.34 1.472 4.074 5.312 6.608 9.404 6.608 1.129 0 2.277-.193 3.4-.6 5.193-1.88 7.881-7.619 6.002-12.818-2.905-8.04-6.947-16.175-12.026-24.29 10.817-5.409 22.744-8.244 35.009-8.244 20.94 0 40.63 8.158 55.45 22.962 14.8 14.814 22.95 34.503 22.96 55.434.02 41.661-32.55 76.044-74.141 78.277-.267.014-3.396 0-4.859 0-13.234 0-25.682-3.414-38.054-10.439-4.802-2.727-10.907-1.04-13.632 3.768s-1.039 10.918 3.765 13.645c13.602 7.723 27.903 12.039 42.583 12.882l-5.412 75.566c-.391 5.505 3.76 10.3 9.26 10.701.24.02.48.03.72.03h.011c5.21 0 9.59-4.084 9.96-9.299l5.569-77.746c23.181-3.343 44.48-14.945 59.96-32.682 7.67-8.769 13.65-18.708 17.801-29.549 4.289-11.211 6.47-23.043 6.47-35.154.001-13.293-2.609-26.186-7.739-38.317zm-113.668 374.887-1.502 20.979h-256.57l-1.503-20.979z"/></g></g></svg>