<svg id="Capa_1" enable-background="new 0 0 512 512" height="512" viewBox="0 0 512 512" width="512" xmlns="http://www.w3.org/2000/svg"><g><path d="m345.726 166.271c68.589 68.589 32.593 133.293-29.525 162.261l-228.72 95.986 95.985-228.721c28.968-62.119 93.671-98.116 162.26-29.526z" fill="#fff"/><path d="m325.726 126.271h40v80h-40z" fill="#efc050" transform="matrix(.707 -.707 .707 .707 -16.311 293.164)"/><path d="m356.333 10 145.663 145.664-113.844 24.749-56.568-56.569z" fill="#fff"/><path d="m11.37 490.347 30.143-46.697 29.415 46.011c3.423 4.865-.015 11.573-5.963 11.635l-47.49.704c-6.028.062-9.588-6.733-6.105-11.653z" fill="#ff5c7d"/><path d="m229.008 365.12-141.529 59.4 50.409-120.11z" fill="#ff5c7d"/><g><path d="m509.066 148.59-145.66-145.66c-1.89-1.89-4.4-2.93-7.06-2.93-.96 0-1.91.13-2.83.41-3.51 1.029-6.18 3.89-6.96 7.47l-24.126 110.976-10.34 10.341c-22.507-10.911-45.686-13.027-67.46-6.074-28.602 9.134-54.198 34.083-70.225 68.451-.055.118-96.147 229.076-96.147 229.076-1.572 3.745-.722 8.069 2.149 10.941 1.914 1.913 4.472 2.929 7.074 2.929 1.303 0 2.618-.255 3.867-.779 0 0 228.957-96.092 229.076-96.147 34.368-16.026 59.317-41.623 68.451-70.227 6.952-21.772 4.836-44.951-6.074-67.458l10.351-10.352 9.345-2.026c2.61-.57 4.84-2.12 6.29-4.37 1.44-2.24 1.92-4.92 1.35-7.53-.48-2.24-1.74-4.26-3.53-5.69-2.33-1.859-5.44-2.59-8.36-1.96l-6.886 1.499-17.35-17.35 13.434-13.435c3.905-3.905 3.905-10.237 0-14.143-3.905-3.904-10.237-3.904-14.142 0l-13.434 13.435-17.352-17.355 19.7-90.61 120.389 120.4c-3.33 2.32-4.93 6.37-4.06 10.34.49 2.25 1.74 4.271 3.53 5.7 2.33 1.85 5.45 2.58 8.36 1.95l13.69-2.971c3.57-.779 6.43-3.449 7.47-6.96 1.03-3.511.059-7.301-2.53-9.891zm-191.624 3.539 14.142-14.143 42.426 42.427-14.142 14.142zm-175.021 167.318 65.537 43.665-101.791 42.721zm227.401-58.164c-7.426 23.256-28.442 44.425-57.678 58.103l-82.056 34.438-79.785-53.158 42.309-100.813c13.677-29.236 34.845-50.252 58.101-57.679 14.074-4.493 28.616-4.108 43.397 1.119-13.397 3.877-26.694 12.185-38.898 24.398-3.903 3.907-3.901 10.238.006 14.143 1.953 1.95 4.51 2.926 7.068 2.926 2.561 0 5.121-.978 7.074-2.932 9.632-9.64 20.158-16.318 30.214-19.282l17.867 17.867-13.435 13.434c-3.905 3.905-3.906 10.237 0 14.143 1.953 1.952 4.512 2.929 7.071 2.929s5.119-.977 7.071-2.929l13.435-13.435 18.199 18.199c-3.014 9.755-9.693 19.96-19.617 29.884-3.905 3.905-3.905 10.237 0 14.143 1.953 1.952 4.512 2.929 7.071 2.929s5.119-.977 7.071-2.929c12.25-12.251 20.611-25.308 24.603-38.26 5.018 14.563 5.341 28.891.912 42.762z"/><path d="m49.938 438.264c-1.833-2.867-4.999-4.605-8.403-4.613-.007 0-.015 0-.022 0-3.395 0-6.56 1.724-8.401 4.576l-30.051 46.553c-3.657 5.328-4.07 12.163-1.063 17.901 3.017 5.761 8.903 9.319 15.438 9.319.062 0 .125 0 .187-.001l47.447-.703c6.477-.067 12.336-3.691 15.29-9.456 2.913-5.686 2.486-12.447-1.103-17.714zm-27.687 53.665 19.221-29.776 18.677 29.215z"/><circle cx="444.344" cy="168.2" r="10"/></g></g></svg>